<svg width="61" height="45" viewBox="0 0 61 45" fill="none" xmlns="http://www.w3.org/2000/svg">
<path d="M3 19.4528L6.40621e-08 19.4528L1.96492e-07 25.4528L3 25.4528L3 19.4528ZM59.6213 24.5741C60.7929 23.4025 60.7929 21.503 59.6213 20.3314L40.5294 1.23956C39.3579 0.0679837 37.4584 0.0679827 36.2868 1.23956C35.1152 2.41113 35.1152 4.31062 36.2868 5.4822L53.2574 22.4528L36.2868 39.4233C35.1152 40.5949 35.1152 42.4944 36.2868 43.666C37.4584 44.8375 39.3579 44.8375 40.5294 43.666L59.6213 24.5741ZM3 25.4528L57.5 25.4528L57.5 19.4528L3 19.4528L3 25.4528Z" fill="black"/>
</svg>
