<svg width="210" height="210" viewBox="0 0 210 210" fill="none" xmlns="http://www.w3.org/2000/svg">
<path d="M203.897 87.3097C207.474 88.3097 209.461 90.4095 209.859 93.6092C210.455 96.809 209.163 99.3088 205.984 101.109C199.426 104.708 194.459 107.708 191.08 110.108C187.702 112.308 185.914 114.608 185.715 117.007C185.516 119.207 186.709 121.707 189.292 124.507C192.074 127.307 196.148 131.106 201.513 135.906C202.904 137.106 203.699 138.506 203.897 140.106C204.295 141.505 204.295 142.905 203.897 144.305C203.5 145.505 202.606 146.605 201.215 147.605C200.023 148.405 198.532 148.805 196.744 148.805C188.994 149.005 183.033 149.205 178.86 149.405C174.885 149.605 172.302 150.605 171.11 152.405C169.917 154.204 169.818 157.004 170.812 160.804C172.004 164.604 173.991 170.203 176.773 177.603C177.369 179.402 177.469 181.102 177.071 182.702C176.674 184.102 175.978 185.302 174.985 186.302C173.991 187.102 172.699 187.602 171.11 187.802C169.719 188.002 168.228 187.702 166.639 186.902C159.882 183.502 154.617 181.102 150.841 179.702C147.065 178.303 144.184 178.203 142.197 179.402C140.409 180.402 139.117 182.802 138.322 186.602C137.527 190.402 136.633 195.801 135.639 202.801C135.441 204.6 134.845 206.1 133.851 207.3C132.857 208.5 131.665 209.3 130.274 209.7C128.883 210.1 127.492 210.1 126.101 209.7C124.71 209.1 123.518 208.1 122.524 206.7C118.153 200.501 114.576 195.901 111.794 192.901C109.211 189.902 106.727 188.402 104.342 188.402C102.156 188.402 99.7716 189.902 97.1883 192.901C94.8038 195.901 91.6244 200.301 87.6501 206.1C86.6565 207.5 85.3649 208.5 83.7752 209.1C82.3842 209.7 80.9932 209.9 79.6022 209.7C78.4099 209.3 77.2177 208.6 76.0254 207.6C75.0318 206.4 74.4357 204.9 74.237 203.101C73.2434 195.501 72.2498 189.802 71.2563 186.002C70.2627 182.202 68.7724 179.802 66.7852 178.802C64.7981 177.603 62.0161 177.803 58.4393 179.402C54.8624 180.802 49.8946 183.202 43.5358 186.602C41.946 187.402 40.3563 187.702 38.7666 187.502C37.1769 187.302 35.8853 186.802 34.8917 186.002C33.8982 185.002 33.2027 183.802 32.8052 182.402C32.4078 181.002 32.5072 179.402 33.1033 177.603C35.4879 170.603 37.2763 165.204 38.4686 161.404C39.8596 157.604 40.0583 154.704 39.0647 152.705C38.0711 150.705 35.5872 149.505 31.613 149.105C27.6387 148.705 21.6773 148.505 13.7288 148.505C10.1519 148.505 7.668 147.005 6.277 144.005C5.08472 141.005 5.78022 138.306 8.36349 135.906C13.7288 130.906 17.8024 126.907 20.5844 123.907C23.3663 120.907 24.658 118.307 24.4593 116.107C24.2606 113.908 22.4721 111.708 19.094 109.508C15.9146 107.308 11.0461 104.508 4.48858 101.109C1.30917 99.3088 -0.18118 96.809 0.0175335 93.6092C0.41496 90.4095 2.30274 88.3097 5.68086 87.3097C12.8345 85.3099 18.2992 83.71 22.0747 82.5101C25.8503 81.1102 28.1355 79.4104 28.9303 77.4105C29.9239 75.2107 29.4271 72.4109 27.44 69.0112C25.6516 65.6115 22.6709 60.8118 18.4979 54.6123C17.5043 53.0125 17.0075 51.5126 17.0075 50.1127C17.0075 48.5128 17.4049 47.1129 18.1998 45.913C18.9947 44.7131 19.9882 43.8132 21.1805 43.2132C22.5715 42.6133 24.1612 42.5133 25.9496 42.9133C33.5007 44.7131 39.2634 46.013 43.2377 46.813C47.4107 47.4129 50.292 47.1129 51.8817 45.913C53.4714 44.5131 54.1669 41.8134 53.9682 37.8137C53.9682 33.814 53.4714 27.9145 52.4779 20.1151C52.0804 16.5154 53.2727 13.9156 56.0547 12.3157C58.8367 10.7158 61.6187 11.0158 64.4007 13.2156C69.9646 18.0152 74.3363 21.615 77.5157 24.0148C80.8939 26.4146 83.6758 27.4145 85.8617 27.0145C88.0475 26.6146 90.0347 24.7147 91.8231 21.315C93.6115 17.7153 95.7974 12.4157 98.3806 5.41624C99.7716 2.01652 102.057 0.216658 105.236 0.0166649C108.416 -0.183317 110.701 1.41656 112.092 4.81629C115.073 12.2157 117.358 17.8153 118.947 21.615C120.736 25.2147 122.624 27.3145 124.611 27.9145C126.797 28.5144 129.479 27.6145 132.659 25.2147C135.838 22.6149 140.21 18.8152 145.774 13.8156C148.556 11.4158 151.338 10.9158 154.12 12.3157C157.1 13.7156 158.392 16.2154 157.995 19.8151C157.2 27.6145 156.703 33.614 156.504 37.8137C156.306 41.8134 156.902 44.6131 158.293 46.213C159.882 47.6129 162.664 48.0129 166.639 47.4129C170.613 46.613 176.376 45.2131 183.927 43.2132C185.715 42.8133 187.305 42.9133 188.696 43.5132C190.087 44.1132 191.18 45.0131 191.975 46.213C192.968 47.2129 193.465 48.5128 193.465 50.1127C193.465 51.5126 192.968 53.0125 191.975 54.6123C187.603 61.2118 184.523 66.3114 182.734 69.9111C180.946 73.5108 180.449 76.3106 181.244 78.3105C182.238 80.3103 184.523 81.9102 188.1 83.1101C191.875 84.31 197.141 85.7099 203.897 87.3097ZM184.523 51.3126C175.779 53.3124 168.924 54.5123 163.956 54.9123C158.988 55.3123 155.312 54.4124 152.927 52.2125C150.543 49.8127 149.251 46.113 149.053 41.1134C149.053 35.9138 149.45 29.0144 150.245 20.415C148.456 22.0149 146.469 23.8148 144.283 25.8146C142.296 27.8145 140.11 29.6143 137.726 31.2142C135.341 32.8141 132.857 34.114 130.274 35.1139C127.89 36.1138 125.505 36.3138 123.12 35.7138C120.736 35.1139 118.649 33.814 116.861 31.8141C115.073 29.8143 113.383 27.5145 111.794 24.9147C110.403 22.3149 109.211 19.6151 108.217 16.8153C107.223 14.0156 106.23 11.5158 105.236 9.31593C102.256 17.3153 99.3742 23.4148 96.5922 27.6145C94.0089 31.8141 91.0282 34.3139 87.6501 35.1139C84.4707 35.7138 80.6951 34.8139 76.3234 32.4141C71.9518 29.8143 66.5865 25.8146 60.2277 20.415C61.2212 29.4143 61.5193 36.4138 61.1219 41.4134C60.9232 46.413 59.5322 49.9127 56.9489 51.9125C54.5643 53.9124 50.7888 54.7123 45.6222 54.3124C40.6544 53.9124 33.9975 52.8125 25.6516 51.0126C30.4207 58.212 33.7988 64.1116 35.7859 68.7112C37.7731 73.3109 38.0711 77.2105 36.6801 80.4103C35.4879 83.4101 32.6065 86.0098 28.0361 88.2097C23.6644 90.2095 17.4049 92.3093 9.2577 94.5092C16.8088 98.5088 22.4721 102.109 26.2477 105.308C30.222 108.508 32.3085 111.808 32.5072 115.208C32.9046 118.407 31.5136 122.007 28.3342 126.007C25.3535 130.006 20.7831 134.906 14.623 140.705C17.0075 140.705 19.6902 140.705 22.6709 140.705C25.6516 140.705 28.6323 140.905 31.613 141.305C34.5937 141.705 37.2763 142.405 39.6608 143.405C42.2441 144.405 44.2313 146.005 45.6222 148.205C46.8145 150.205 47.4107 152.505 47.4107 155.104C47.4107 157.704 47.0132 160.404 46.2184 163.204C45.6222 166.003 44.728 168.803 43.5358 171.603C42.5422 174.403 41.648 176.903 40.8531 179.102C48.4042 175.103 54.5643 172.503 59.3335 171.303C64.1026 169.903 67.8781 170.003 70.6601 171.603C73.6408 173.203 75.926 176.403 77.5157 181.202C79.1054 185.802 80.4964 192.301 81.6887 200.701C86.4578 193.701 90.6308 188.502 94.2076 185.102C97.7845 181.702 101.262 180.002 104.64 180.002C108.018 180.002 111.496 181.802 115.073 185.402C118.649 188.802 122.922 193.901 127.89 200.701C129.082 192.301 130.473 185.802 132.063 181.202C133.652 176.403 135.937 173.303 138.918 171.903C141.899 170.303 145.774 170.203 150.543 171.603C155.312 173.003 161.472 175.603 169.023 179.402C165.844 171.003 163.757 164.304 162.764 159.304C161.969 154.304 162.466 150.505 164.254 147.905C166.241 145.305 169.719 143.605 174.687 142.805C179.853 141.805 186.709 141.205 195.253 141.005C189.093 135.206 184.523 130.406 181.542 126.607C178.561 122.607 177.27 119.007 177.667 115.807C178.263 112.408 180.449 109.108 184.225 105.908C188 102.709 193.564 99.0088 200.917 94.8091C192.769 92.8093 186.411 90.8095 181.84 88.8096C177.469 86.6098 174.687 84.01 173.494 81.0102C172.302 77.8105 172.699 73.9108 174.687 69.3112C176.674 64.5116 179.952 58.512 184.523 51.3126Z" fill="#E9A5BC"/>
</svg>
