<svg width="88" height="88" viewBox="0 0 88 88" fill="none" xmlns="http://www.w3.org/2000/svg">
<path d="M53.3159 5.6783C48.02 4.3902 42.7855 4.17286 37.6123 5.02629C32.4392 5.87972 27.6946 7.61778 23.3785 10.2405C19.0624 12.8632 15.3367 16.2721 12.2014 20.4674C9.066 24.6626 6.85528 29.4041 5.56917 34.6918C4.28306 39.9795 4.06916 45.2066 4.92746 50.3732C5.78576 55.5398 7.52961 60.2791 10.159 64.5911C12.7884 68.9031 16.2047 72.6262 20.408 75.7602C24.6113 78.8942 29.3609 81.1053 34.6568 82.3934C40.0395 83.7026 45.2741 83.9199 50.3604 83.0454C55.5335 82.192 60.2781 80.4539 64.5942 77.8312C68.9971 75.2296 72.7662 71.8312 75.9016 67.636C79.0369 63.4408 81.2476 58.6993 82.5338 53.4116C83.8199 48.1239 84.0338 42.8967 83.1755 37.7301C82.3172 32.5635 80.5299 27.8137 77.8137 23.4805C75.1843 19.1685 71.768 15.4455 67.5647 12.3115C63.4483 9.19859 58.6987 6.98753 53.3159 5.6783ZM63.8868 21.1949C62.4109 20.8359 60.7713 21.9061 58.9679 24.4055C57.2514 26.9259 55.9188 30.1366 54.97 34.0373C54.0002 38.0248 53.6988 41.5321 54.066 44.5594C54.5199 47.6078 55.4849 49.3115 56.9608 49.6705C58.4367 50.0295 60.0329 48.9487 61.7494 46.4282C63.5527 43.9289 64.9393 40.6855 65.9092 36.698C66.8579 32.7972 67.1053 29.3227 66.6514 26.2743C66.2842 23.247 65.3627 21.5539 63.8868 21.1949ZM37.8412 14.8599C36.3653 14.5009 34.7257 15.5711 32.9224 18.0705C31.2059 20.591 29.8732 23.8016 28.9245 27.7024C27.9546 31.6898 27.6533 35.1972 28.0204 38.2244C28.4744 41.2728 29.4393 42.9765 30.9152 43.3355C32.3911 43.6945 33.9873 42.6137 35.7039 40.0933C37.5072 37.5939 38.8938 34.3505 39.8636 30.363C40.8124 26.4623 41.0598 22.9877 40.6058 19.9393C40.2387 16.912 39.3172 15.2189 37.8412 14.8599ZM73.8401 51.1593C74.3449 52.1084 74.1552 52.8886 73.2709 53.4998C72.4734 54.1321 71.7143 54.0393 70.9937 53.2214C69.8689 56.7121 68.1021 59.8171 65.6936 62.5365C63.3929 65.1903 60.7096 67.3379 57.6437 68.9793C54.6646 70.6418 51.4108 71.7326 47.8822 72.2515C44.3537 72.7705 40.8096 72.5971 37.2501 71.7313C33.6905 70.8655 30.4627 69.3918 27.5667 67.3103C24.6707 65.2287 22.2379 62.7548 20.2683 59.8887C18.3856 57.0436 17.0318 53.9141 16.207 50.5001C15.4033 46.9994 15.26 43.4298 15.7772 39.7913C14.7614 40.1869 14.0445 39.9207 13.6266 38.9927C13.2086 38.0648 13.3983 37.2846 14.1958 36.6523C15.2748 35.9966 16.3998 35.7193 17.5706 35.8205C18.8282 35.9428 19.9041 36.434 20.7984 37.2942C21.4743 37.9176 21.62 38.6417 21.2356 39.4663C20.8722 40.2042 20.2459 40.5109 19.3566 40.3864C18.858 43.5704 18.9765 46.6749 19.712 49.7C20.4475 52.725 21.6146 55.4878 23.2133 57.9883C24.9199 60.4233 27.0253 62.5421 29.5294 64.3447C32.1203 66.1684 34.9785 67.4604 38.104 68.2206C41.2294 68.9808 44.3183 69.1353 47.3706 68.6841C50.5097 68.2541 53.3964 67.3495 56.0307 65.9704C58.6861 64.5046 61.0351 62.597 63.0778 60.2477C65.1205 57.8983 66.6516 55.195 67.6711 52.1378C66.824 51.8399 66.4085 51.2798 66.4246 50.4574C66.4618 49.5484 66.9238 48.9721 67.8106 48.7288C69 48.3754 70.1379 48.4226 71.2244 48.8705C72.3977 49.3395 73.2696 50.1025 73.8401 51.1593ZM54.1698 2.16761C59.9866 3.58242 65.1387 6.0291 69.626 9.50763C74.2212 12.9206 77.9216 16.9881 80.7271 21.7102C83.6405 26.3667 85.5604 31.5161 86.487 37.1584C87.5214 42.7351 87.3323 48.4273 85.9197 54.2351C84.5071 60.0429 82.0502 65.2295 78.5489 69.7948C75.1556 74.2945 71.0851 77.9869 66.3374 80.8718C61.6976 83.6912 56.5425 85.6049 50.872 86.6128C45.3094 87.5551 39.6197 87.3189 33.8029 85.9041C28.0729 84.5104 22.9103 82.107 18.3151 78.6941C13.8278 75.2155 10.1274 71.148 7.21401 66.4915C4.4085 61.7694 2.48854 56.62 1.45411 51.0433C0.52759 45.4011 0.770635 39.676 2.18325 33.8682C3.59586 28.0604 5.99882 22.9066 9.39214 18.4069C12.8934 13.8416 16.9639 10.1492 21.6037 7.32986C26.3514 4.4449 31.5065 2.53126 37.0691 1.58893C42.7395 0.581028 48.4398 0.773923 54.1698 2.16761Z" fill="#F05D26"/>
</svg>
